# Blender 4.0.2
# www.blender.org
o Cube
v 0.500000 0.500000 -0.500000
v 0.500000 -0.500000 -0.500000
v 0.500000 0.500000 0.500000
v 0.500000 -0.500000 0.500000
v -0.500000 0.500000 -0.500000
v -0.500000 -0.500000 -0.500000
v -0.500000 0.500000 0.500000
v -0.500000 -0.500000 0.500000
vn -0.0000 1.0000 -0.0000
vn -0.0000 -0.0000 1.0000
vn -1.0000 -0.0000 -0.0000
vn -0.0000 -1.0000 -0.0000
vn 1.0000 -0.0000 -0.0000
vn -0.0000 -0.0000 -1.0000
vt 0.610241 -0.010633
vt 0.383197 1.017196
vt -0.017196 0.389759
vt 1.000000 1.000000
vt 0.000000 0.000000
vt 1.000000 0.000000
vt 0.000000 1.000000
vt 1.010633 0.616803
s 0
f 5/1/1 3/2/1 1/3/1
f 3/4/2 8/5/2 4/6/2
f 7/4/3 6/5/3 8/6/3
f 2/6/4 8/7/4 6/5/4
f 1/4/5 4/5/5 2/6/5
f 5/4/6 2/5/6 6/6/6
f 5/1/1 7/8/1 3/2/1
f 3/4/2 7/7/2 8/5/2
f 7/4/3 5/7/3 6/5/3
f 2/6/4 4/4/4 8/7/4
f 1/4/5 3/7/5 4/5/5
f 5/4/6 1/7/6 2/5/6
